# ProBuilder 4.1.0
# https://unity3d.com/unity/features/worldbuilding/probuilder
# 5/9/2020 9:23:55 AM

mtllib ./CharacterModel.mtl
o CharacterModel

g BodyHead
v -47.726 3.995 42.445
v -49.246 3.995 42.445
v -47.726 5.457276 42.52422
v -49.246 5.457276 42.52422
v -49.246 4.025229 41.88702
v -49.246 5.479832 42.10785
v -47.726 4.025229 41.88702
v -47.726 5.479832 42.10785
v -48.07802 6.548029 42.67519
v -48.89398 6.548029 42.67519
v -48.07802 6.572752 42.21881
v -48.89398 6.572752 42.21881
v -48.20268 5.493651 42.52619
v -48.76932 5.493651 42.52619
v -48.20268 5.516207 42.10982
v -48.76932 5.516207 42.10982
v -48.20268 5.733922 42.53921
v -48.76932 5.733922 42.53921
v -48.20268 5.756478 42.12284
v -48.76932 5.756478 42.12284
v -48.07802 5.729104 42.63082
v -48.89398 5.729104 42.63082
v -48.07802 5.761584 42.03125
v -48.89398 5.761584 42.03125

vt 0 0
vt -1.52 0
vt 0 1.46442
vt -1.52 1.46442
vt -0.5588021 3.590533E-07
vt -0.4169784 1.464419
vt 1.52 -0.05386598
vt 0 -0.05386598
vt 1.52 1.417404
vt 0 1.417404
vt 0.5588008 -1.358848E-07
vt 0.4169771 1.464419
vt 0.3520164 0.09174983
vt 1.16798 0.09174983
vt 0.3520164 -0.3652906
vt 1.16798 -0.3652906
vt 0 -0.5588008
vt -1.52 -0.5588008
vt -0.4766769 1.500849
vt -1.04332 1.500849
vt 0.1115901 -0.4169717
vt 0.1115903 9.222787E-06
vt 0.5896571 -0.416974
vt 0.5896572 6.893422E-06
vt 1.403992 9.652E-06
vt 1.403992 -0.4169712
vt 0.925921 7.322636E-06
vt 0.9259211 -0.4169736
vt 1.52 1.464445
vt 1.04332 1.500875
vt 0.4766769 1.500875
vt -0.4766769 1.741473
vt -1.04332 1.741473
vt 0.4169794 1.500848
vt -1.482466E-06 1.500849
vt 0.4169768 1.741471
vt -4.070774E-06 1.741473
vt -0.4169794 1.500848
vt -0.4169768 1.741471
vt 1.04332 1.741467
vt 0.4766769 1.741467
vt -0.4766769 0.002737771
vt -1.04332 0.002737771
vt -0.3520164 0.09447438
vt -1.16798 0.09447438
vt -0.4746668 -0.4169704
vt -0.4746668 1.054504E-05
vt -0.3500063 -0.5087071
vt -0.3500063 0.09174705
vt -1.045326 1.053853E-05
vt -1.045326 -0.4169704
vt -1.169986 0.09174704
vt -1.169986 -0.5087071
vt -1.04332 -0.419701
vt -0.4766769 -0.419701
vt -1.16798 -0.5114378
vt -0.3520164 -0.5114378
vt -0.3520164 1.741616
vt -1.16798 1.741616
vt -0.3520164 2.561743
vt -1.16798 2.561743
vt 0.5087136 1.741615
vt -0.09174057 1.741617
vt 0.3653013 2.561741
vt -0.09173914 2.561743
vt 0.09174057 1.741617
vt -0.5087136 1.741615
vt 0.09173914 2.561743
vt -0.3653013 2.561741
vt 1.16798 1.627955
vt 0.3520164 1.627955
vt 1.16798 2.460527
vt 0.3520164 2.460527

vn 0 -0.05409956 0.9985356
vn -1 -3.713025E-07 8.344579E-07
vn 0 0.1500993 -0.9886709
vn 1 0 0
vn 0 0.9985359 0.05409279
vn 0 -0.9985357 -0.05409671
vn 0.07620098 0.9956326 0.05393597
vn -0.07620037 0.9956327 0.05393597
vn 0 0.05403324 -0.9985391
vn 0 -0.9986194 -0.05252942
vn 0.001154085 -0.9985352 -0.05409321
vn -0.00115244 -0.9985352 -0.05409321
vn 0 -0.9984499 -0.05565916
vn 0 0.2252884 -0.9742922

usemtl ProBuilderDefault
f 3/3/1 4/4/1 2/2/1 1/1/1
f 4/3/2 6/6/2 5/5/2 2/1/2
f 6/9/3 8/10/3 7/8/3 5/7/3
f 8/12/4 3/3/4 1/1/4 7/11/4
f 11/15/5 12/16/5 10/14/5 9/13/5
f 1/1/6 2/2/6 5/18/6 7/17/6
f 13/19/1 14/20/1 4/4/1 3/3/1
f 15/23/7 13/24/7 3/22/7 8/21/7
f 14/27/8 16/28/8 6/26/8 4/25/8
f 16/30/9 15/31/9 8/3/9 6/29/9
f 17/32/1 18/33/1 14/20/1 13/19/1
f 19/36/4 17/37/4 13/35/4 15/34/4
f 18/37/2 20/39/2 16/38/2 14/35/2
f 20/40/9 19/41/9 15/31/9 16/30/9
f 21/44/10 22/45/10 18/43/10 17/42/10
f 23/48/11 21/49/11 17/47/11 19/46/11
f 22/52/12 24/53/12 20/51/12 18/50/12
f 24/56/13 23/57/13 19/55/13 20/54/13
f 9/60/1 10/61/1 22/59/1 21/58/1
f 11/64/4 9/65/4 21/63/4 23/62/4
f 10/68/2 12/69/2 24/67/2 22/66/2
f 12/72/14 11/73/14 23/71/14 24/70/14

g Bottom
v -47.726 3.286 42.407
v -49.246 3.286 42.407
v -47.726 3.99496 42.44541
v -49.246 3.99496 42.44541
v -49.246 3.308721 41.98762
v -49.246 4.017681 42.02602
v -47.726 3.308721 41.98762
v -47.726 4.017681 42.02602

vt 0 0
vt -1.52 0
vt 0 0.71
vt -1.52 0.71
vt -0.42 0
vt -0.42 0.71
vt 1.52 0
vt 1.52 0.71
vt 0.42 0
vt 0.42 0.71
vt 0 -0.42
vt 1.52 -0.42
vt -1.52 -0.42

vn 0 -0.05409696 0.9985357
vn -1 0 0
vn 0 0.05409696 -0.9985357
vn 1 0 0
vn 0 0.9985357 0.05409696
vn 0 -0.9985357 -0.05409696

usemtl ProBuilderDefault
f 27/76/15 28/77/15 26/75/15 25/74/15
f 28/76/16 30/79/16 29/78/16 26/74/16
f 30/81/17 32/76/17 31/74/17 29/80/17
f 32/83/18 27/76/18 25/74/18 31/82/18
f 32/84/19 30/85/19 28/80/19 27/74/19
f 25/74/20 26/75/20 29/86/20 31/84/20

g Foot
v -47.731 2.359 42.252
v -48.201 2.359 42.252
v -47.731 3.27561 42.40924
v -48.201 3.27561 42.40924
v -48.201 2.430015 41.83805
v -48.201 3.346625 41.99529
v -47.731 2.430015 41.83805
v -47.731 3.346625 41.99529

vt 0 0
vt -0.47 0
vt 0 0.93
vt -0.47 0.93
vt -0.42 0
vt -0.42 0.93
vt 0.47 0
vt 0.47 0.93
vt 0.42 0
vt 0.42 0.93
vt 0 -0.42
vt 0.47 -0.42
vt -0.47 -0.42

vn 0 -0.1690829 0.9856018
vn -1 0 0
vn 0 0.1690829 -0.9856018
vn 1 0 0
vn 0 0.9856018 0.1690829
vn 0 -0.9856018 -0.1690829

usemtl ProBuilderDefault
f 35/89/21 36/90/21 34/88/21 33/87/21
f 36/89/22 38/92/22 37/91/22 34/87/22
f 38/94/23 40/89/23 39/87/23 37/93/23
f 40/96/24 35/89/24 33/87/24 39/95/24
f 40/97/25 38/98/25 36/93/25 35/87/25
f 33/87/26 34/88/26 37/99/26 39/97/26

g Foot1
v -47.731 1.43 42.252
v -48.201 1.43 42.252
v -47.731 2.36 42.252
v -48.201 2.36 42.252
v -48.201 1.43 41.832
v -48.201 2.36 41.832
v -47.731 1.43 41.832
v -47.731 2.36 41.832

vt 0 0
vt -0.47 0
vt 0 0.93
vt -0.47 0.93
vt -0.42 0
vt -0.42 0.93
vt 0.47 0
vt 0.47 0.93
vt 0.42 0
vt 0.42 0.93
vt 0 -0.42
vt 0.47 -0.42
vt -0.47 -0.42

vn 0 1.862645E-08 1
vn -1 0 0
vn 0 -1.862645E-08 -1
vn 1 0 0
vn 0 1 -1.862645E-08
vn 0 -1 1.862645E-08

usemtl ProBuilderDefault
f 43/102/27 44/103/27 42/101/27 41/100/27
f 44/102/28 46/105/28 45/104/28 42/100/28
f 46/107/29 48/102/29 47/100/29 45/106/29
f 48/109/30 43/102/30 41/100/30 47/108/30
f 48/110/31 46/111/31 44/106/31 43/100/31
f 41/100/32 42/101/32 45/112/32 47/110/32

g Footpalm
v -47.73 0.9999998 42.22
v -48.2 0.9999998 42.22
v -47.73 1.451117 42.22
v -48.2 1.451117 42.22
v -48.2 0.9999998 41.22
v -48.2 1.28 41.22
v -47.73 0.9999998 41.22
v -47.73 1.28 41.22

vt 0 0
vt -0.47 0
vt 0 0.4511168
vt -0.4700012 0.4511168
vt -1 1.273042E-06
vt -1 0.2800013
vt 0.47 0
vt 0.47 0.28
vt 0 0.28
vt 1 0
vt 1 0.28
vt 0 0.07608774
vt 0.4700012 0.07608774
vt 0 -0.9384471
vt 0.47 -0.9384471
vt 0 -1
vt -0.47 -1

vn 0 1.862645E-08 1
vn -1 -2.708601E-06 5.045162E-14
vn 0 -1.862645E-08 -1
vn 1 0 0
vn 0 0.9856734 -0.1686653
vn 0 -1 1.862645E-08

usemtl ProBuilderDefault
f 51/115/33 52/116/33 50/114/33 49/113/33
f 52/115/34 54/118/34 53/117/34 50/113/34
f 54/120/35 56/121/35 55/113/35 53/119/35
f 56/123/36 51/115/36 49/113/36 55/122/36
f 56/126/37 54/127/37 52/125/37 51/124/37
f 49/113/38 50/114/38 53/129/38 55/128/38

g Footright
v -48.731 2.359 42.252
v -49.201 2.359 42.252
v -48.731 3.27561 42.40924
v -49.201 3.27561 42.40924
v -49.201 2.430015 41.83805
v -49.201 3.346625 41.99529
v -48.731 2.430015 41.83805
v -48.731 3.346625 41.99529

vt 0 0
vt -0.47 0
vt 0 0.93
vt -0.47 0.93
vt -0.42 0
vt -0.42 0.93
vt 0.47 0
vt 0.47 0.93
vt 0.42 0
vt 0.42 0.93
vt 0 -0.42
vt 0.47 -0.42
vt -0.47 -0.42

vn 0 -0.1690829 0.9856018
vn -1 0 0
vn 0 0.1690829 -0.9856018
vn 1 0 0
vn 0 0.9856018 0.1690829
vn 0 -0.9856018 -0.1690829

usemtl ProBuilderDefault
f 59/132/39 60/133/39 58/131/39 57/130/39
f 60/132/40 62/135/40 61/134/40 58/130/40
f 62/137/41 64/132/41 63/130/41 61/136/41
f 64/139/42 59/132/42 57/130/42 63/138/42
f 64/140/43 62/141/43 60/136/43 59/130/43
f 57/130/44 58/131/44 61/142/44 63/140/44

g Foot1 (2)
v -48.731 1.43 42.252
v -49.201 1.43 42.252
v -48.731 2.36 42.252
v -49.201 2.36 42.252
v -49.201 1.43 41.832
v -49.201 2.36 41.832
v -48.731 1.43 41.832
v -48.731 2.36 41.832

vt 0 0
vt -0.47 0
vt 0 0.93
vt -0.47 0.93
vt -0.42 0
vt -0.42 0.93
vt 0.47 0
vt 0.47 0.93
vt 0.42 0
vt 0.42 0.93
vt 0 -0.42
vt 0.47 -0.42
vt -0.47 -0.42

vn 0 1.862645E-08 1
vn -1 0 0
vn 0 -1.862645E-08 -1
vn 1 0 0
vn 0 1 -1.862645E-08
vn 0 -1 1.862645E-08

usemtl ProBuilderDefault
f 67/145/45 68/146/45 66/144/45 65/143/45
f 68/145/46 70/148/46 69/147/46 66/143/46
f 70/150/47 72/145/47 71/143/47 69/149/47
f 72/152/48 67/145/48 65/143/48 71/151/48
f 72/153/49 70/154/49 68/149/49 67/143/49
f 65/143/50 66/144/50 69/155/50 71/153/50

g Footpalm (1)
v -48.73 0.9999998 42.22
v -49.2 0.9999998 42.22
v -48.73 1.451117 42.22
v -49.2 1.451117 42.22
v -49.2 0.9999998 41.22
v -49.2 1.28 41.22
v -48.73 0.9999998 41.22
v -48.73 1.28 41.22

vt 0 0
vt -0.47 0
vt 0 0.4511168
vt -0.4700012 0.4511168
vt -1 1.273042E-06
vt -1 0.2800013
vt 0.47 0
vt 0.47 0.28
vt 0 0.28
vt 1 0
vt 1 0.28
vt 0 0.07608774
vt 0.4700012 0.07608774
vt 0 -0.9384471
vt 0.47 -0.9384471
vt 0 -1
vt -0.47 -1

vn 0 1.862645E-08 1
vn -1 -2.708601E-06 5.045162E-14
vn 0 -1.862645E-08 -1
vn 1 0 0
vn 0 0.9856734 -0.1686653
vn 0 -1 1.862645E-08

usemtl ProBuilderDefault
f 75/158/51 76/159/51 74/157/51 73/156/51
f 76/158/52 78/161/52 77/160/52 74/156/52
f 78/163/53 80/164/53 79/156/53 77/162/53
f 80/166/54 75/158/54 73/156/54 79/165/54
f 80/169/55 78/170/55 76/168/55 75/167/55
f 73/156/56 74/157/56 77/172/56 79/171/56

g LeftArm
v -47.376 4.793 42.007
v -47.736 4.793 42.007
v -47.376 5.268445 42.53431
v -47.736 5.268445 42.53431
v -47.736 5.082647 41.74584
v -47.736 5.558093 42.27315
v -47.376 5.082647 41.74584
v -47.376 5.558093 42.27315

vt 0 0
vt -0.36 0
vt 0 0.71
vt -0.36 0.71
vt -0.39 0
vt -0.39 0.71
vt 0.36 0
vt 0.36 0.71
vt 0.39 0
vt 0.39 0.71
vt 0 -0.39
vt 0.36 -0.39
vt -0.36 -0.39

vn 0 -0.7426847 0.6696414
vn -1 0 0
vn 0 0.7426847 -0.6696414
vn 1 0 0
vn 0 0.6696414 0.7426847
vn 0 -0.6696414 -0.7426847

usemtl ProBuilderDefault
f 83/175/57 84/176/57 82/174/57 81/173/57
f 84/175/58 86/178/58 85/177/58 82/173/58
f 86/180/59 88/175/59 87/173/59 85/179/59
f 88/182/60 83/175/60 81/173/60 87/181/60
f 88/183/61 86/184/61 84/179/61 83/173/61
f 81/173/62 82/174/62 85/185/62 87/183/62

g LeftShoulder
v -47.388 4.415 41.542
v -47.70595 4.415 41.542
v -47.388 4.834913 42.00772
v -47.70595 4.834913 42.00772
v -47.70595 4.670816 41.31134
v -47.70595 5.09073 41.77706
v -47.388 4.670816 41.31134
v -47.388 5.09073 41.77706

vt 0 0
vt -0.36 0
vt 0 0.71
vt -0.36 0.71
vt -0.39 0
vt -0.39 0.71
vt 0.36 0
vt 0.36 0.71
vt 0.39 0
vt 0.39 0.71
vt 0 -0.39
vt 0.36 -0.39
vt -0.36 -0.39

vn 0 -0.6559391 0.5914273
vn -0.8832 0 0
vn 0 0.6559391 -0.5914273
vn 0.8832 0 0
vn 0 0.5914273 0.6559391
vn 0 -0.5914273 -0.6559391

usemtl ProBuilderDefault
f 91/188/63 92/189/63 90/187/63 89/186/63
f 92/188/64 94/191/64 93/190/64 90/186/64
f 94/193/65 96/188/65 95/186/65 93/192/65
f 96/195/66 91/188/66 89/186/66 95/194/66
f 96/196/67 94/197/67 92/192/67 91/186/67
f 89/186/68 90/187/68 93/198/68 95/196/68

g LeftWrist
v -47.388 4.172 41.273
v -47.68238 4.172 41.273
v -47.388 4.469009 41.60241
v -47.68238 4.469009 41.60241
v -47.68238 4.40885 41.05944
v -47.68238 4.705859 41.38885
v -47.388 4.40885 41.05944
v -47.388 4.705859 41.38885

vt 0 0
vt -0.36 0
vt 0 0.71
vt -0.36 0.71
vt -0.39 0
vt -0.39 0.71
vt 0.36 0
vt 0.36 0.71
vt 0.39 0
vt 0.39 0.71
vt 0 -0.39
vt 0.36 -0.39
vt -0.36 -0.39

vn 0 -0.6073076 0.5475788
vn -0.8177196 0 0
vn 0 0.6073076 -0.5475788
vn 0.8177196 0 0
vn 0 0.4183228 0.4639527
vn 0 -0.4183228 -0.4639527

usemtl ProBuilderDefault
f 99/201/69 100/202/69 98/200/69 97/199/69
f 100/201/70 102/204/70 101/203/70 98/199/70
f 102/206/71 104/201/71 103/199/71 101/205/71
f 104/208/72 99/201/72 97/199/72 103/207/72
f 104/209/73 102/210/73 100/205/73 99/199/73
f 97/199/74 98/200/74 101/211/74 103/209/74

g RightArm
v -49.25 4.793 42.007
v -49.61 4.793 42.007
v -49.25 5.268445 42.53431
v -49.61 5.268445 42.53431
v -49.61 5.082647 41.74584
v -49.61 5.558093 42.27315
v -49.25 5.082647 41.74584
v -49.25 5.558093 42.27315

vt 0 0
vt -0.36 0
vt 0 0.71
vt -0.36 0.71
vt -0.39 0
vt -0.39 0.71
vt 0.36 0
vt 0.36 0.71
vt 0.39 0
vt 0.39 0.71
vt 0 -0.39
vt 0.36 -0.39
vt -0.36 -0.39

vn 0 -0.7426847 0.6696414
vn -1 0 0
vn 0 0.7426847 -0.6696414
vn 1 0 0
vn 0 0.6696414 0.7426847
vn 0 -0.6696414 -0.7426847

usemtl ProBuilderDefault
f 107/214/75 108/215/75 106/213/75 105/212/75
f 108/214/76 110/217/76 109/216/76 106/212/76
f 110/219/77 112/214/77 111/212/77 109/218/77
f 112/221/78 107/214/78 105/212/78 111/220/78
f 112/222/79 110/223/79 108/218/79 107/212/79
f 105/212/80 106/213/80 109/224/80 111/222/80

g RightShoulder
v -49.262 4.415 41.542
v -49.57995 4.415 41.542
v -49.262 4.834913 42.00772
v -49.57995 4.834913 42.00772
v -49.57995 4.670816 41.31134
v -49.57995 5.09073 41.77706
v -49.262 4.670816 41.31134
v -49.262 5.09073 41.77706

vt 0 0
vt -0.36 0
vt 0 0.71
vt -0.36 0.71
vt -0.39 0
vt -0.39 0.71
vt 0.36 0
vt 0.36 0.71
vt 0.39 0
vt 0.39 0.71
vt 0 -0.39
vt 0.36 -0.39
vt -0.36 -0.39

vn 0 -0.6559391 0.5914273
vn -0.8832 0 0
vn 0 0.6559391 -0.5914273
vn 0.8832 0 0
vn 0 0.5914273 0.6559391
vn 0 -0.5914273 -0.6559391

usemtl ProBuilderDefault
f 115/227/81 116/228/81 114/226/81 113/225/81
f 116/227/82 118/230/82 117/229/82 114/225/82
f 118/232/83 120/227/83 119/225/83 117/231/83
f 120/234/84 115/227/84 113/225/84 119/233/84
f 120/235/85 118/236/85 116/231/85 115/225/85
f 113/225/86 114/226/86 117/237/86 119/235/86

g RightWirst
v -49.262 4.172 41.273
v -49.55638 4.172 41.273
v -49.262 4.469009 41.60241
v -49.55638 4.469009 41.60241
v -49.55638 4.40885 41.05944
v -49.55638 4.705859 41.38885
v -49.262 4.40885 41.05944
v -49.262 4.705859 41.38885

vt 0 0
vt -0.36 0
vt 0 0.71
vt -0.36 0.71
vt -0.39 0
vt -0.39 0.71
vt 0.36 0
vt 0.36 0.71
vt 0.39 0
vt 0.39 0.71
vt 0 -0.39
vt 0.36 -0.39
vt -0.36 -0.39

vn 0 -0.6073076 0.5475788
vn -0.8177196 0 0
vn 0 0.6073076 -0.5475788
vn 0.8177196 0 0
vn 0 0.4183228 0.4639527
vn 0 -0.4183228 -0.4639527

usemtl ProBuilderDefault
f 123/240/87 124/241/87 122/239/87 121/238/87
f 124/240/88 126/243/88 125/242/88 122/238/88
f 126/245/89 128/240/89 127/238/89 125/244/89
f 128/247/90 123/240/90 121/238/90 127/246/90
f 128/248/91 126/249/91 124/244/91 123/238/91
f 121/238/92 122/239/92 125/250/92 127/248/92

